<mxfile host="65bd71144e" scale="3" border="0">
    <diagram id="LzTGRrPrDBO6Tm46XuKC" name="Page-1">
        <mxGraphModel dx="2839" dy="2140" grid="0" gridSize="10" guides="1" tooltips="1" connect="1" arrows="1" fold="1" page="0" pageScale="1" pageWidth="1600" pageHeight="1200" math="0" shadow="0">
            <root>
                <mxCell id="0"/>
                <mxCell id="1" parent="0"/>
                <mxCell id="481" value="" style="rounded=0;whiteSpace=wrap;html=1;dashed=1;dashPattern=12 12;" vertex="1" parent="1">
                    <mxGeometry x="-964" y="-598" width="980" height="745" as="geometry"/>
                </mxCell>
                <mxCell id="445" value="PLL Controllers" style="rounded=0;whiteSpace=wrap;html=1;fontSize=18;" vertex="1" parent="1">
                    <mxGeometry x="-908" y="-451" width="120" height="60" as="geometry"/>
                </mxCell>
                <mxCell id="446" value="Reset Controllers" style="rounded=0;whiteSpace=wrap;html=1;fontSize=18;" vertex="1" parent="1">
                    <mxGeometry x="-908" y="-299" width="120" height="60" as="geometry"/>
                </mxCell>
                <mxCell id="447" value="Interrupt Controllers" style="rounded=0;whiteSpace=wrap;html=1;fontSize=18;" vertex="1" parent="1">
                    <mxGeometry x="-908" y="-67" width="120" height="60" as="geometry"/>
                </mxCell>
                <mxCell id="471" style="edgeStyle=none;html=1;exitX=1;exitY=0.5;exitDx=0;exitDy=0;entryX=0;entryY=0.5;entryDx=0;entryDy=0;fillColor=#f8cecc;strokeColor=#b85450;fontSize=18;strokeWidth=2;" edge="1" parent="1" source="448" target="467">
                    <mxGeometry relative="1" as="geometry"/>
                </mxCell>
                <mxCell id="448" value="&lt;b&gt;&amp;nbsp; MCU_ESM0&lt;/b&gt;" style="rounded=0;whiteSpace=wrap;html=1;align=left;verticalAlign=top;fontSize=18;fillColor=#fff2cc;strokeColor=#d6b656;" vertex="1" parent="1">
                    <mxGeometry x="-454" y="-535" width="238" height="258" as="geometry"/>
                </mxCell>
                <mxCell id="449" value="&lt;b&gt;&amp;nbsp; ESM0&lt;/b&gt;" style="rounded=0;whiteSpace=wrap;html=1;align=left;verticalAlign=top;fontSize=18;fillColor=#fff2cc;strokeColor=#d6b656;" vertex="1" parent="1">
                    <mxGeometry x="-454" y="-206" width="238" height="295" as="geometry"/>
                </mxCell>
                <mxCell id="450" value="Resets" style="text;html=1;align=left;verticalAlign=middle;whiteSpace=wrap;rounded=0;flipV=1;fontSize=18;" vertex="1" parent="1">
                    <mxGeometry x="-446" y="-472" width="101" height="30" as="geometry"/>
                </mxCell>
                <mxCell id="452" value="Clocks" style="text;html=1;align=left;verticalAlign=middle;whiteSpace=wrap;rounded=0;flipV=1;fontSize=18;" vertex="1" parent="1">
                    <mxGeometry x="-446" y="-436" width="94" height="30" as="geometry"/>
                </mxCell>
                <mxCell id="453" value="Interrupts" style="text;html=1;align=left;verticalAlign=middle;whiteSpace=wrap;rounded=0;flipV=1;fontSize=18;" vertex="1" parent="1">
                    <mxGeometry x="-446" y="-400" width="92" height="30" as="geometry"/>
                </mxCell>
                <mxCell id="454" value="Error events" style="text;html=1;align=left;verticalAlign=middle;whiteSpace=wrap;rounded=0;fontSize=18;" vertex="1" parent="1">
                    <mxGeometry x="-446" y="-329" width="114" height="30" as="geometry"/>
                </mxCell>
                <mxCell id="456" value="Resets" style="text;html=1;align=left;verticalAlign=middle;whiteSpace=wrap;rounded=0;flipV=1;fontSize=18;" vertex="1" parent="1">
                    <mxGeometry x="-446" y="-124" width="101" height="30" as="geometry"/>
                </mxCell>
                <mxCell id="457" value="Clocks" style="text;html=1;align=left;verticalAlign=middle;whiteSpace=wrap;rounded=0;flipV=1;fontSize=18;" vertex="1" parent="1">
                    <mxGeometry x="-446" y="-88" width="94" height="30" as="geometry"/>
                </mxCell>
                <mxCell id="458" value="Interrupts" style="text;html=1;align=left;verticalAlign=middle;whiteSpace=wrap;rounded=0;flipV=1;fontSize=18;" vertex="1" parent="1">
                    <mxGeometry x="-446" y="-52" width="92" height="30" as="geometry"/>
                </mxCell>
                <mxCell id="459" value="Error events" style="text;html=1;align=left;verticalAlign=middle;whiteSpace=wrap;rounded=0;fontSize=18;" vertex="1" parent="1">
                    <mxGeometry x="-446" y="24" width="114" height="30" as="geometry"/>
                </mxCell>
                <mxCell id="460" style="edgeStyle=none;html=1;exitX=1;exitY=0.5;exitDx=0;exitDy=0;entryX=0.007;entryY=0.436;entryDx=0;entryDy=0;entryPerimeter=0;fillColor=#dae8fc;strokeColor=#6c8ebf;fontSize=18;strokeWidth=2;" edge="1" parent="1" source="445" target="448">
                    <mxGeometry relative="1" as="geometry">
                        <mxPoint x="-508" y="-412" as="targetPoint"/>
                    </mxGeometry>
                </mxCell>
                <mxCell id="461" style="edgeStyle=orthogonalEdgeStyle;html=1;exitX=1;exitY=0.5;exitDx=0;exitDy=0;entryX=0.006;entryY=0.448;entryDx=0;entryDy=0;entryPerimeter=0;fillColor=#dae8fc;strokeColor=#6c8ebf;fontSize=18;strokeWidth=2;" edge="1" parent="1" source="445" target="449">
                    <mxGeometry relative="1" as="geometry">
                        <Array as="points">
                            <mxPoint x="-613" y="-421"/>
                            <mxPoint x="-613" y="-74"/>
                        </Array>
                    </mxGeometry>
                </mxCell>
                <mxCell id="476" value="Interface&lt;br&gt;and functional&lt;br&gt;clocks" style="edgeLabel;html=1;align=left;verticalAlign=middle;resizable=0;points=[];fontSize=15;" vertex="1" connectable="0" parent="461">
                    <mxGeometry x="-0.9598" relative="1" as="geometry">
                        <mxPoint x="-8" y="-36" as="offset"/>
                    </mxGeometry>
                </mxCell>
                <mxCell id="462" style="edgeStyle=orthogonalEdgeStyle;html=1;exitX=1;exitY=0.5;exitDx=0;exitDy=0;entryX=0.006;entryY=0.304;entryDx=0;entryDy=0;entryPerimeter=0;fillColor=#e1d5e7;strokeColor=#9673a6;fontSize=18;strokeWidth=2;" edge="1" parent="1" source="446" target="448">
                    <mxGeometry relative="1" as="geometry">
                        <Array as="points">
                            <mxPoint x="-677" y="-269"/>
                            <mxPoint x="-677" y="-457"/>
                        </Array>
                    </mxGeometry>
                </mxCell>
                <mxCell id="464" style="edgeStyle=orthogonalEdgeStyle;html=1;exitX=1;exitY=0.5;exitDx=0;exitDy=0;entryX=0.006;entryY=0.333;entryDx=0;entryDy=0;entryPerimeter=0;fillColor=#e1d5e7;strokeColor=#9673a6;fontSize=18;strokeWidth=2;" edge="1" parent="1" source="446" target="449">
                    <mxGeometry relative="1" as="geometry">
                        <Array as="points">
                            <mxPoint x="-676" y="-269"/>
                            <mxPoint x="-676" y="-108"/>
                        </Array>
                    </mxGeometry>
                </mxCell>
                <mxCell id="477" value="Reset signals" style="edgeLabel;html=1;align=center;verticalAlign=middle;resizable=0;points=[];fontSize=15;" vertex="1" connectable="0" parent="464">
                    <mxGeometry x="-0.9425" relative="1" as="geometry">
                        <mxPoint x="38" y="-18" as="offset"/>
                    </mxGeometry>
                </mxCell>
                <mxCell id="465" style="edgeStyle=none;html=1;exitX=1;exitY=0.5;exitDx=0;exitDy=0;entryX=0;entryY=0.576;entryDx=0;entryDy=0;entryPerimeter=0;fillColor=#d5e8d4;strokeColor=#82b366;fontSize=18;strokeWidth=2;" edge="1" parent="1" source="447" target="449">
                    <mxGeometry relative="1" as="geometry">
                        <mxPoint x="-479" y="-34" as="targetPoint"/>
                    </mxGeometry>
                </mxCell>
                <mxCell id="466" style="edgeStyle=orthogonalEdgeStyle;html=1;exitX=1;exitY=0.5;exitDx=0;exitDy=0;entryX=0.002;entryY=0.583;entryDx=0;entryDy=0;entryPerimeter=0;fillColor=#d5e8d4;strokeColor=#82b366;fontSize=18;strokeWidth=2;" edge="1" parent="1" source="447" target="448">
                    <mxGeometry relative="1" as="geometry">
                        <Array as="points">
                            <mxPoint x="-571" y="-37"/>
                            <mxPoint x="-571" y="-385"/>
                        </Array>
                    </mxGeometry>
                </mxCell>
                <mxCell id="470" value="" style="group;fontSize=18;" vertex="1" connectable="0" parent="1">
                    <mxGeometry x="1" y="-422.5" width="30" height="33" as="geometry"/>
                </mxCell>
                <mxCell id="467" value="" style="rounded=0;whiteSpace=wrap;html=1;fontSize=18;" vertex="1" parent="470">
                    <mxGeometry width="30" height="33" as="geometry"/>
                </mxCell>
                <mxCell id="468" style="edgeStyle=none;html=1;exitX=0;exitY=0;exitDx=0;exitDy=0;entryX=1;entryY=1;entryDx=0;entryDy=0;endArrow=none;endFill=0;fontSize=18;" edge="1" parent="470" source="467" target="467">
                    <mxGeometry relative="1" as="geometry"/>
                </mxCell>
                <mxCell id="469" style="edgeStyle=none;html=1;exitX=0;exitY=1;exitDx=0;exitDy=0;entryX=1;entryY=0;entryDx=0;entryDy=0;endArrow=none;endFill=0;fontSize=18;" edge="1" parent="470" source="467" target="467">
                    <mxGeometry relative="1" as="geometry"/>
                </mxCell>
                <mxCell id="472" style="edgeStyle=orthogonalEdgeStyle;html=1;exitX=1;exitY=0.5;exitDx=0;exitDy=0;entryX=0.001;entryY=0.86;entryDx=0;entryDy=0;entryPerimeter=0;fillColor=#f8cecc;strokeColor=#b85450;fontSize=18;strokeWidth=2;" edge="1" parent="1" source="449" target="448">
                    <mxGeometry relative="1" as="geometry">
                        <Array as="points">
                            <mxPoint x="-145" y="-58"/>
                            <mxPoint x="-145" y="-241"/>
                            <mxPoint x="-504" y="-241"/>
                            <mxPoint x="-504" y="-313"/>
                        </Array>
                    </mxGeometry>
                </mxCell>
                <mxCell id="475" style="edgeStyle=orthogonalEdgeStyle;html=1;exitX=1;exitY=0.5;exitDx=0;exitDy=0;fillColor=#f8cecc;strokeColor=#b85450;fontSize=18;strokeWidth=2;entryX=-0.004;entryY=0.828;entryDx=0;entryDy=0;entryPerimeter=0;" edge="1" parent="1" source="448" target="449">
                    <mxGeometry relative="1" as="geometry">
                        <mxPoint x="-215" y="-408" as="sourcePoint"/>
                        <mxPoint x="-470" y="34" as="targetPoint"/>
                        <Array as="points">
                            <mxPoint x="-147" y="-406"/>
                            <mxPoint x="-147" y="-241"/>
                            <mxPoint x="-502" y="-241"/>
                            <mxPoint x="-502" y="39"/>
                            <mxPoint x="-455" y="39"/>
                        </Array>
                    </mxGeometry>
                </mxCell>
                <mxCell id="479" value="MCU_SAFETY_ERRORn" style="text;html=1;align=left;verticalAlign=middle;whiteSpace=wrap;rounded=0;fontSize=18;" vertex="1" parent="1">
                    <mxGeometry x="49" y="-421" width="201" height="30" as="geometry"/>
                </mxCell>
            </root>
        </mxGraphModel>
    </diagram>
</mxfile>